<svg width="68" height="24" viewBox="0 0 68 24" fill="none" xmlns="http://www.w3.org/2000/svg">
<path d="M18.3334 12.0001C18.3334 16.6025 14.6024 20.3334 10 20.3334M18.3334 12.0001C18.3334 7.39771 14.6024 3.66675 10 3.66675M18.3334 12.0001C18.3334 10.6194 14.6024 9.50008 10 9.50008C5.39765 9.50008 1.66669 10.6194 1.66669 12.0001M18.3334 12.0001C18.3334 13.3808 14.6024 14.5001 10 14.5001C5.39765 14.5001 1.66669 13.3808 1.66669 12.0001M10 20.3334C5.39765 20.3334 1.66669 16.6025 1.66669 12.0001M10 20.3334C11.841 20.3334 13.3334 16.6025 13.3334 12.0001C13.3334 7.39771 11.841 3.66675 10 3.66675M10 20.3334C8.15907 20.3334 6.66669 16.6025 6.66669 12.0001C6.66669 7.39771 8.15907 3.66675 10 3.66675M1.66669 12.0001C1.66669 7.39771 5.39765 3.66675 10 3.66675" stroke="#494EE6" stroke-width="1.25"/>
<path d="M26.0996 17C25.9823 17 25.8863 16.9627 25.8116 16.888C25.737 16.8133 25.6996 16.7173 25.6996 16.6V6.2C25.6996 6.08267 25.737 5.98667 25.8116 5.912C25.8863 5.83733 25.9823 5.8 26.0996 5.8H33.3476C33.465 5.8 33.561 5.83733 33.6356 5.912C33.7103 5.98667 33.7476 6.08267 33.7476 6.2V7.48C33.7476 7.58667 33.7103 7.67733 33.6356 7.752C33.561 7.82667 33.465 7.864 33.3476 7.864H28.1636V10.376H32.9956C33.113 10.376 33.209 10.4133 33.2836 10.488C33.3583 10.5627 33.3956 10.6587 33.3956 10.776V11.96C33.3956 12.0667 33.3583 12.1573 33.2836 12.232C33.209 12.3067 33.113 12.344 32.9956 12.344H28.1636V14.936H33.4756C33.593 14.936 33.689 14.9733 33.7636 15.048C33.8383 15.1227 33.8756 15.2187 33.8756 15.336V16.6C33.8756 16.7173 33.8383 16.8133 33.7636 16.888C33.689 16.9627 33.593 17 33.4756 17H26.0996ZM36.1778 17C36.0604 17 35.9644 16.9627 35.8898 16.888C35.8151 16.8133 35.7778 16.7173 35.7778 16.6V6.2C35.7778 6.08267 35.8151 5.98667 35.8898 5.912C35.9644 5.83733 36.0604 5.8 36.1778 5.8H37.6338C37.7938 5.8 37.9111 5.83733 37.9858 5.912C38.0604 5.98667 38.1084 6.04533 38.1298 6.088L42.4018 12.76V6.2C42.4018 6.08267 42.4391 5.98667 42.5138 5.912C42.5884 5.83733 42.6791 5.8 42.7858 5.8H44.4178C44.5351 5.8 44.6311 5.83733 44.7058 5.912C44.7804 5.98667 44.8178 6.08267 44.8178 6.2V16.6C44.8178 16.7067 44.7804 16.8027 44.7058 16.888C44.6311 16.9627 44.5351 17 44.4178 17H42.9458C42.7858 17 42.6684 16.9627 42.5938 16.888C42.5298 16.8027 42.4818 16.744 42.4498 16.712L38.1938 10.248V16.6C38.1938 16.7173 38.1564 16.8133 38.0818 16.888C38.0071 16.9627 37.9111 17 37.7938 17H36.1778Z" fill="#494EE6"/>
<path d="M53.8333 10.3333L58 13.6666L62.1666 10.3333" stroke="#494EE6" stroke-width="1.25" stroke-linecap="round" stroke-linejoin="round"/>
</svg>
